v 0.5 -0.5 1
v 0.5 -0.5 0
v 0.5 0.5 1
v 0.5 0.5 0
v -0.5 0.5 1
v -0.5 0.5 0
v -0.5 -0.5 1
v -0.5 -0.5 0
v 1000 -950 160
v 1000 -950 0
v 1000 -830 160
v 1000 -830 0
v -1000 -830 160
v -1000 -830 0
v -1000 -950 160
v -1000 -950 0
v 1000 830 160
v 1000 830 0
v 1000 950 160
v 1000 950 0
v -1000 950 160
v -1000 950 0
v -1000 830 160
v -1000 830 0
v -880 -830 160
v -880 -830 0
v -880 830 160
v -880 830 0
v 880 830 160
v 880 830 0
v 880 -830 160
v 880 -830 0
v 880 -350 120
v 880 -350 0
v 880 -250 120
v 880 -250 0
v -880 -250 120
v -880 -250 0
v -880 -350 120
v -880 -350 0
v 880 250 120
v 880 250 0
v 880 350 120
v 880 350 0
v -880 350 120
v -880 350 0
v -880 250 120
v -880 250 0
v 50 -830 120
v 50 -830 0
v 50 830 120
v 50 830 0
v -50 830 120
v -50 830 0
v -50 -830 120
v -50 -830 0
v -820 770 3100
v -820 770 160
v -820 950 3100
v -820 950 160
v -1000 950 3100
v -1000 770 3100
v -1000 770 160
v 1000 770 3100
v 1000 770 2880
v 1000 950 3100
v 1000 950 2880
v -1000 950 2880
v -1000 770 2880
v 958.31934 810 2868.9736
v 348.74585 810 198.87152
v 958.31934 910 2868.9736
v 348.74585 910 198.87152
v 251.25417 910 221.12848
v 860.82764 910 2891.2307
v 860.82764 810 2891.2307
v 251.25417 810 221.12848
v -240 225 1500
v -240 225 160
v -240 725 1500
v -240 725 160
v -760 725 1500
v -760 725 160
v -760 225 1500
v -760 225 160
v -270 205 1450
v -270 205 230
v -270 225 1450
v -270 225 230
v -730 225 1450
v -730 225 230
v -730 205 1450
v -730 205 230
v -280 265 240
v -280 265 160
v -280 685 240
v -280 685 160
v -720 685 240
v -720 685 160
v -720 265 240
v -720 265 160
v -720 630 1880
v -720 630 1520
v -720 770 1880
v -720 770 1520
v -1000 770 1880
v -1000 770 1520
v -1000 630 1880
v -1000 630 1520
v -740 616 1860
v -740 616 1540
v -740 630 1860
v -740 630 1540
v -980 630 1860
v -980 630 1540
v -980 616 1860
v -980 616 1540
vn 1 0 0
vn 0 1 0
vn -1 0 0
vn 0 -1 0
vn -0 -0 -1
vn 0 0 1
vn 0.9749168 0 -0.22256956
vn -0.9749168 0 0.22256956
vn -0.22256956 -0 -0.9749168
vn 0.22256956 0 0.9749168
o Unnamed-0
f 1//1 2//1 3//1
f 3//1 2//1 4//1
f 3//2 4//2 5//2
f 5//2 4//2 6//2
f 5//3 6//3 7//3
f 7//3 6//3 8//3
f 7//4 8//4 1//4
f 1//4 8//4 2//4
f 8//5 6//5 2//5
f 6//5 4//5 2//5
f 7//6 1//6 5//6
f 5//6 1//6 3//6
o Unnamed-1
f 9//1 10//1 11//1
f 11//1 10//1 12//1
f 11//2 12//2 13//2
f 13//2 12//2 14//2
f 13//3 14//3 15//3
f 15//3 14//3 16//3
f 15//4 16//4 9//4
f 9//4 16//4 10//4
f 16//5 14//5 10//5
f 14//5 12//5 10//5
f 15//6 9//6 13//6
f 13//6 9//6 11//6
o Unnamed-2
f 17//1 18//1 19//1
f 19//1 18//1 20//1
f 19//2 20//2 21//2
f 21//2 20//2 22//2
f 21//3 22//3 23//3
f 23//3 22//3 24//3
f 23//4 24//4 17//4
f 17//4 24//4 18//4
f 24//5 22//5 18//5
f 22//5 20//5 18//5
f 23//6 17//6 21//6
f 21//6 17//6 19//6
o Unnamed-3
f 25//1 26//1 27//1
f 27//1 26//1 28//1
f 27//2 28//2 23//2
f 23//2 28//2 24//2
f 23//3 24//3 13//3
f 13//3 24//3 14//3
f 13//4 14//4 25//4
f 25//4 14//4 26//4
f 14//5 24//5 26//5
f 24//5 28//5 26//5
f 13//6 25//6 23//6
f 23//6 25//6 27//6
o Unnamed-4
f 11//1 12//1 17//1
f 17//1 12//1 18//1
f 17//2 18//2 29//2
f 29//2 18//2 30//2
f 29//3 30//3 31//3
f 31//3 30//3 32//3
f 31//4 32//4 11//4
f 11//4 32//4 12//4
f 32//5 30//5 12//5
f 30//5 18//5 12//5
f 31//6 11//6 29//6
f 29//6 11//6 17//6
o Unnamed-5
f 33//1 34//1 35//1
f 35//1 34//1 36//1
f 35//2 36//2 37//2
f 37//2 36//2 38//2
f 37//3 38//3 39//3
f 39//3 38//3 40//3
f 39//4 40//4 33//4
f 33//4 40//4 34//4
f 40//5 38//5 34//5
f 38//5 36//5 34//5
f 39//6 33//6 37//6
f 37//6 33//6 35//6
o Unnamed-6
f 41//1 42//1 43//1
f 43//1 42//1 44//1
f 43//2 44//2 45//2
f 45//2 44//2 46//2
f 45//3 46//3 47//3
f 47//3 46//3 48//3
f 47//4 48//4 41//4
f 41//4 48//4 42//4
f 48//5 46//5 42//5
f 46//5 44//5 42//5
f 47//6 41//6 45//6
f 45//6 41//6 43//6
o Unnamed-7
f 49//1 50//1 51//1
f 51//1 50//1 52//1
f 51//2 52//2 53//2
f 53//2 52//2 54//2
f 53//3 54//3 55//3
f 55//3 54//3 56//3
f 55//4 56//4 49//4
f 49//4 56//4 50//4
f 56//5 54//5 50//5
f 54//5 52//5 50//5
f 55//6 49//6 53//6
f 53//6 49//6 51//6
o Unnamed-8
f 57//1 58//1 59//1
f 59//1 58//1 60//1
f 59//2 60//2 61//2
f 61//2 60//2 21//2
f 61//3 21//3 62//3
f 62//3 21//3 63//3
f 62//4 63//4 57//4
f 57//4 63//4 58//4
f 63//5 21//5 58//5
f 21//5 60//5 58//5
f 62//6 57//6 61//6
f 61//6 57//6 59//6
o Unnamed-9
f 64//1 65//1 66//1
f 66//1 65//1 67//1
f 66//2 67//2 61//2
f 61//2 67//2 68//2
f 61//3 68//3 62//3
f 62//3 68//3 69//3
f 62//4 69//4 64//4
f 64//4 69//4 65//4
f 69//5 68//5 65//5
f 68//5 67//5 65//5
f 62//6 64//6 61//6
f 61//6 64//6 66//6
o Unnamed-10
f 70//7 71//7 72//7
f 72//7 71//7 73//7
f 73//2 74//2 72//2
f 74//2 75//2 72//2
f 75//8 74//8 76//8
f 76//8 74//8 77//8
f 76//4 77//4 70//4
f 70//4 77//4 71//4
f 77//9 74//9 71//9
f 74//9 73//9 71//9
f 76//10 70//10 75//10
f 75//10 70//10 72//10
o Unnamed-11
f 78//1 79//1 80//1
f 80//1 79//1 81//1
f 80//2 81//2 82//2
f 82//2 81//2 83//2
f 82//3 83//3 84//3
f 84//3 83//3 85//3
f 84//4 85//4 78//4
f 78//4 85//4 79//4
f 85//5 83//5 79//5
f 83//5 81//5 79//5
f 84//6 78//6 82//6
f 82//6 78//6 80//6
o Unnamed-12
f 86//1 87//1 88//1
f 88//1 87//1 89//1
f 88//2 89//2 90//2
f 90//2 89//2 91//2
f 90//3 91//3 92//3
f 92//3 91//3 93//3
f 92//4 93//4 86//4
f 86//4 93//4 87//4
f 93//5 91//5 87//5
f 91//5 89//5 87//5
f 92//6 86//6 90//6
f 90//6 86//6 88//6
o Unnamed-13
f 94//1 95//1 96//1
f 96//1 95//1 97//1
f 96//2 97//2 98//2
f 98//2 97//2 99//2
f 98//3 99//3 100//3
f 100//3 99//3 101//3
f 100//4 101//4 94//4
f 94//4 101//4 95//4
f 101//5 99//5 95//5
f 99//5 97//5 95//5
f 100//6 94//6 98//6
f 98//6 94//6 96//6
o Unnamed-14
f 102//1 103//1 104//1
f 104//1 103//1 105//1
f 104//2 105//2 106//2
f 106//2 105//2 107//2
f 106//3 107//3 108//3
f 108//3 107//3 109//3
f 108//4 109//4 102//4
f 102//4 109//4 103//4
f 109//5 107//5 103//5
f 107//5 105//5 103//5
f 108//6 102//6 106//6
f 106//6 102//6 104//6
o Unnamed-15
f 110//1 111//1 112//1
f 112//1 111//1 113//1
f 112//2 113//2 114//2
f 114//2 113//2 115//2
f 114//3 115//3 116//3
f 116//3 115//3 117//3
f 116//4 117//4 110//4
f 110//4 117//4 111//4
f 117//5 115//5 111//5
f 115//5 113//5 111//5
f 116//6 110//6 114//6
f 114//6 110//6 112//6
